<svg width="20" height="17" viewBox="0 0 20 17" fill="none" xmlns="http://www.w3.org/2000/svg">
<path d="M8.87948 2.26649L8.85808 2.24667L8.83556 2.22814C7.95647 1.50447 6.77644 1.03704 5.64 1.03704C4.46668 1.03704 3.32348 1.40518 2.3911 2.34853C0.51391 4.02098 0.555718 6.84114 2.40052 8.54962L2.40051 8.54963L2.40476 8.55352L9.36476 14.9251L10.0439 15.5468L10.7195 14.9212C11.8827 13.8439 13.0254 12.7671 14.1644 11.6938L14.1658 11.6924C15.3031 10.6207 16.4368 9.5524 17.5897 8.48456C19.4864 6.81429 19.4505 3.98077 17.5995 2.26649C15.7761 0.577835 12.9439 0.577835 11.1205 2.26649L10 3.30421L8.87948 2.26649ZM10.2395 3.52599L10.2391 3.52565C10.2392 3.52576 10.2394 3.52588 10.2395 3.52599L10 3.78458L10.2395 3.52599Z" stroke="white" stroke-width="2"/>
</svg>
