<svg width="127" height="22" viewBox="0 0 127 22" fill="none" xmlns="http://www.w3.org/2000/svg">
<path d="M82.2186 22C76.0836 22 71.1576 17.5732 71.1576 11.1341C71.1576 4.69512 76.0388 0 82.2186 0C88.3985 0 93.2348 4.73983 93.2348 11.1341C93.2348 17.5284 88.3985 22 82.2186 22ZM84.6816 20.6138C88.2193 20.6138 91.4436 17.439 91.4436 13.9512C91.4436 8.49594 85.3085 1.4756 79.7109 1.4756C76.1731 1.4756 73.128 4.56098 73.128 8.0935C73.128 13.5488 79.0391 20.6138 84.6816 20.6138ZM112.088 10.687H113.655C117.059 10.687 119.208 9.61382 119.208 5.63415C119.208 3.08537 117.596 1.25203 114.909 1.25203H114.372C112.088 1.25203 112.088 2.59349 112.088 4.42683V10.687ZM106.132 20.8821C108.908 20.8821 108.908 19.8089 108.908 17.5732V4.42683C108.908 2.19105 108.908 1.11789 106.132 1.11789V0.536591H114.909C118.357 0.536591 122.746 1.34147 122.746 5.63415C122.746 8.49594 120.148 10.061 118.268 10.8211C119.029 12.1179 121.358 15.6951 123.014 18.0203C124.044 19.4959 125.298 20.9268 127 20.9268V21.5081H122.343C121.447 21.5081 121.178 21.1057 120.775 20.5244C118.895 17.8415 116.566 13.9959 115.446 12.2073C115.043 11.5813 114.685 11.4472 113.7 11.4472H112.133V17.5732C112.133 20.3008 112.133 20.8821 114.909 20.8821V21.4634H106.132V20.8821ZM103.669 1.07317C100.892 1.07317 100.892 2.14634 100.892 4.38211V17.5285C100.892 20.0325 100.937 20.8374 103.669 20.8374V21.4187H94.7574V20.8374C97.713 20.8374 97.713 19.7642 97.713 17.5285V4.38211C97.713 2.14634 97.713 1.07317 94.9365 1.07317V0.491873H103.714V1.07317H103.669ZM19.5695 20.8821C22.3459 20.8821 22.3459 19.8089 22.3459 17.5732V4.42683C22.3459 2.19105 22.3459 1.11789 19.5695 1.11789V0.536591H34.3921C35.0638 0.536591 35.3773 0.804881 35.4669 1.38618L36.2281 5.72357L35.6908 5.90244C34.4817 3.84553 33.5413 2.23577 32.9591 1.78862C32.5561 1.47561 31.9739 1.25203 31.0335 1.25203H28.3466C25.5702 1.25203 25.5702 2.19105 25.5702 4.42683V10.2846H28.2123C30.72 10.2846 31.5261 8.89837 31.5261 6.3943H32.1083V14.935H31.5261C31.347 12.6545 30.72 11.0447 28.2123 11.0447H25.5702V17.5732C25.5702 19.8089 25.5702 20.748 28.3466 20.748H32.4665C33.2278 20.748 33.7652 20.4797 34.213 20.0772C34.7504 19.6301 36.4073 17.126 37.2581 15.6057L37.7507 15.7845L36.5864 20.7032C36.4968 21.1951 36.1834 21.4634 35.6012 21.4634H19.5247V20.8821H19.5695ZM0.0447773 20.8821C2.82122 20.8821 2.82123 19.8089 2.82123 17.5732V4.42683C2.82123 2.19105 2.82122 1.11789 0.0447773 1.11789V0.536591H8.82193V1.11789C6.04549 1.11789 6.04549 2.19105 6.04549 4.42683V17.5732C6.04549 19.8089 6.04549 20.748 8.82193 20.748H12.2701C13.2553 20.748 13.927 20.4797 14.5987 19.8984C15.5391 19.0488 16.8378 16.7683 17.823 14.7114L18.3604 14.8902L17.1961 20.7927C17.1065 21.374 16.793 21.4634 16.2109 21.4634H0V20.8821H0.0447773ZM46.1248 21.4634V20.8821C49.2147 20.8821 49.4834 19.4959 49.4834 15.6057V3.26422C48.2743 1.92276 47.513 1.11789 45.4979 1.11789V0.536591H50.7373C51.9016 0.536591 52.1255 1.07317 52.9764 2.05691L66.0078 16.7683V6.43902C66.0078 2.54878 65.7391 1.1626 62.6492 1.1626V0.581295H70.3068V1.1626C67.2169 1.1626 66.9482 2.54878 66.9482 6.43902V20.9268C66.9482 21.4187 66.7243 21.687 66.4108 21.687C66.0973 21.687 65.8734 21.5976 65.4256 21.1504L50.4686 4.38211V15.6951C50.4686 19.5854 50.7373 20.9715 53.8272 20.9715V21.5528H46.1248V21.4634Z" fill="white"/>
</svg>
